<?xml version="1.0" standalone="no"?><svg xmlns:xlink="http://www.w3.org/1999/xlink" xmlns="http://www.w3.org/2000/svg" viewBox="0 0 1000 625" preserveAspectRatio="xMaxYMax slice"><g transform="scale(0.7301401869158879)"><rect x="0" y="0" width="1369.6" height="856" fill="#7DCFB6"/><rect x="0" y="0" width="85.6" height="85.6" fill="#96c3a3"/><polygon points="0,0 85.6,0 85.6,85.6" fill="#a1bd9a"/><rect x="85.6" y="0" width="85.6" height="85.6" fill="#417e9a"/><polygon points="85.6,0 171.2,0 171.2,85.6" fill="#24588c"/><rect x="171.2" y="0" width="85.6" height="85.6" fill="#7DCFB6"/><rect x="171.2" y="0" width="42.8" height="42.8" fill="#3c7898"/><polygon points="171.2,0 214,0 214,42.8" fill="#65afab"/><rect x="214" y="0" width="42.8" height="42.8" fill="#c7aa7c"/><polygon points="214,0 256.8,42.8 214,42.8" fill="#86caaf"/><rect x="171.2" y="42.8" width="42.8" height="42.8" fill="#285c8e"/><polygon points="171.2,42.8 214,42.8 171.2,85.6" fill="#75c4b2"/><rect x="214" y="42.8" width="42.8" height="42.8" fill="#84cbb0"/><polygon points="256.8,42.8 256.8,85.6 214,85.6" fill="#bdaf84"/><rect x="256.79999999999995" y="0" width="85.6" height="85.6" fill="#7DCFB6"/><rect x="256.8" y="0" width="42.8" height="42.8" fill="#c7aa7c"/><polygon points="299.6,0 299.6,42.8 256.8,42.8" fill="#c4ac7e"/><rect x="299.6" y="0" width="42.8" height="42.8" fill="#ea9960"/><polygon points="299.6,0 342.40000000000003,0 299.6,42.8" fill="#e89a62"/><rect x="256.8" y="42.8" width="42.8" height="42.8" fill="#c4ab7e"/><polygon points="299.6,42.8 299.6,85.6 256.8,85.6" fill="#f0965c"/><rect x="299.6" y="42.8" width="42.8" height="42.8" fill="#20528a"/><polygon points="299.6,42.8 342.40000000000003,42.8 342.40000000000003,85.6" fill="#3f7c99"/><rect x="342.4" y="0" width="85.6" height="85.6" fill="#6db9ae"/><polygon points="342.4,0 428,85.6 342.4,85.6" fill="#4a8a9e"/><rect x="428" y="0" width="85.6" height="85.6" fill="#24588c"/><polygon points="428,0 513.6,0 513.6,85.6" fill="#5599a3"/><rect x="513.6" y="0" width="85.6" height="85.6" fill="#b9b187"/><polygon points="513.6,0 599.2,0 599.2,85.6" fill="#85cbb0"/><rect x="599.2" y="0" width="85.6" height="85.6" fill="#c3ac7f"/><polygon points="684.8000000000001,0 684.8000000000001,85.6 599.2,85.6" fill="#62abaa"/><rect x="684.8" y="0" width="85.6" height="85.6" fill="#7DCFB6"/><rect x="684.8" y="0" width="42.8" height="42.8" fill="#8dc7a9"/><polygon points="727.5999999999999,0 727.5999999999999,42.8 684.8,42.8" fill="#6ab6ad"/><rect x="727.6" y="0" width="42.8" height="42.8" fill="#cca778"/><polygon points="727.6,0 770.4,42.8 727.6,42.8" fill="#9cc09e"/><rect x="684.8" y="42.8" width="42.8" height="42.8" fill="#4b8c9e"/><polygon points="684.8,42.8 727.5999999999999,42.8 727.5999999999999,85.6" fill="#c3ac7f"/><rect x="727.6" y="42.8" width="42.8" height="42.8" fill="#b9b187"/><polygon points="727.6,42.8 770.4,42.8 727.6,85.6" fill="#47879d"/><rect x="770.4" y="0" width="85.6" height="85.6" fill="#f2945a"/><polygon points="770.4,0 856,0 770.4,85.6" fill="#24578c"/><rect x="856" y="0" width="85.6" height="85.6" fill="#c5ab7e"/><polygon points="941.6,0 941.6,85.6 856,85.6" fill="#285c8e"/><rect x="941.6" y="0" width="85.6" height="85.6" fill="#6dbaaf"/><polygon points="941.6,0 1027.2,0 1027.2,85.6" fill="#69b4ad"/><rect x="1027.2" y="0" width="85.6" height="85.6" fill="#f69357"/><polygon points="1112.8,0 1112.8,85.6 1027.2,85.6" fill="#1f518a"/><rect x="1112.8" y="0" width="85.6" height="85.6" fill="#7DCFB6"/><rect x="1112.8" y="0" width="42.8" height="42.8" fill="#7acab4"/><polygon points="1112.8,0 1155.6,0 1112.8,42.8" fill="#aab892"/><rect x="1155.6" y="0" width="42.8" height="42.8" fill="#ed975e"/><polygon points="1155.6,0 1198.3999999999999,42.8 1155.6,42.8" fill="#599fa5"/><rect x="1112.8" y="42.8" width="42.8" height="42.8" fill="#20518a"/><polygon points="1155.6,42.8 1155.6,85.6 1112.8,85.6" fill="#579ba4"/><rect x="1155.6" y="42.8" width="42.8" height="42.8" fill="#7eceb5"/><polygon points="1155.6,42.8 1198.3999999999999,42.8 1198.3999999999999,85.6" fill="#cba879"/><rect x="1198.4" y="0" width="85.6" height="85.6" fill="#25588d"/><polygon points="1198.4,0 1284,0 1284,85.6" fill="#285d8e"/><rect x="1284" y="0" width="85.6" height="85.6" fill="#6cb9ae"/><polygon points="1284,0 1369.6,0 1284,85.6" fill="#6ebbaf"/><rect x="0" y="85.6" width="85.6" height="85.6" fill="#7DCFB6"/><rect x="0" y="85.6" width="42.8" height="42.8" fill="#24588d"/><polygon points="0,85.6 42.8,85.6 42.8,128.39999999999998" fill="#dba06c"/><rect x="42.8" y="85.6" width="42.8" height="42.8" fill="#336b93"/><polygon points="42.8,85.6 85.6,85.6 42.8,128.39999999999998" fill="#2b608f"/><rect x="0" y="128.4" width="42.8" height="42.8" fill="#b1b58d"/><polygon points="0,128.4 42.8,128.4 42.8,171.2" fill="#a4bb97"/><rect x="42.8" y="128.4" width="42.8" height="42.8" fill="#a5bb97"/><polygon points="42.8,128.4 85.6,128.4 85.6,171.2" fill="#67b1ac"/><rect x="85.6" y="85.6" width="85.6" height="85.6" fill="#4c8d9f"/><polygon points="171.2,85.6 171.2,171.2 85.6,171.2" fill="#316992"/><rect x="171.2" y="85.6" width="85.6" height="85.6" fill="#83ccb1"/><polygon points="171.2,85.6 256.79999999999995,171.2 171.2,171.2" fill="#6bb7ae"/><rect x="256.79999999999995" y="85.6" width="85.6" height="85.6" fill="#7DCFB6"/><rect x="256.8" y="85.6" width="42.8" height="42.8" fill="#346c94"/><polygon points="299.6,85.6 299.6,128.39999999999998 256.8,128.39999999999998" fill="#4d8fa0"/><rect x="299.6" y="85.6" width="42.8" height="42.8" fill="#beaf83"/><polygon points="299.6,85.6 342.40000000000003,128.39999999999998 299.6,128.39999999999998" fill="#c4ac7e"/><rect x="256.8" y="128.4" width="42.8" height="42.8" fill="#c2ac7f"/><polygon points="256.8,128.4 299.6,128.4 299.6,171.2" fill="#f0955b"/><rect x="299.6" y="128.4" width="42.8" height="42.8" fill="#90c5a7"/><polygon points="342.40000000000003,128.4 342.40000000000003,171.2 299.6,171.2" fill="#599ea5"/><rect x="342.4" y="85.6" width="85.6" height="85.6" fill="#7DCFB6"/><rect x="342.4" y="85.6" width="42.8" height="42.8" fill="#8dc7a9"/><polygon points="342.4,85.6 385.2,85.6 385.2,128.39999999999998" fill="#68b3ac"/><rect x="385.2" y="85.6" width="42.8" height="42.8" fill="#c9a97a"/><polygon points="385.2,85.6 428,85.6 385.2,128.39999999999998" fill="#306792"/><rect x="342.4" y="128.4" width="42.8" height="42.8" fill="#f59357"/><polygon points="385.2,128.4 385.2,171.2 342.4,171.2" fill="#356e94"/><rect x="385.2" y="128.4" width="42.8" height="42.8" fill="#cca777"/><polygon points="385.2,128.4 428,128.4 385.2,171.2" fill="#d1a574"/><rect x="428" y="85.6" width="85.6" height="85.6" fill="#387295"/><polygon points="428,85.6 513.6,85.6 513.6,171.2" fill="#5ea5a7"/><rect x="513.6" y="85.6" width="85.6" height="85.6" fill="#e79a62"/><polygon points="513.6,85.6 599.2,85.6 599.2,171.2" fill="#adb790"/><rect x="599.2" y="85.6" width="85.6" height="85.6" fill="#e89a62"/><polygon points="599.2,85.6 684.8000000000001,85.6 599.2,171.2" fill="#275c8e"/><rect x="684.8" y="85.6" width="85.6" height="85.6" fill="#71beb0"/><polygon points="684.8,85.6 770.4,171.2 684.8,171.2" fill="#5ea6a8"/><rect x="770.4" y="85.6" width="85.6" height="85.6" fill="#7DCFB6"/><rect x="770.4" y="85.6" width="42.8" height="42.8" fill="#8ac8ab"/><polygon points="813.1999999999999,85.6 813.1999999999999,128.39999999999998 770.4,128.39999999999998" fill="#c4ab7e"/><rect x="813.2" y="85.6" width="42.8" height="42.8" fill="#a4bb97"/><polygon points="813.2,85.6 856,128.39999999999998 813.2,128.39999999999998" fill="#d9a16d"/><rect x="770.4" y="128.4" width="42.8" height="42.8" fill="#a1bd9a"/><polygon points="770.4,128.4 813.1999999999999,128.4 770.4,171.2" fill="#599ea5"/><rect x="813.2" y="128.4" width="42.8" height="42.8" fill="#75c4b2"/><polygon points="813.2,128.4 856,128.4 856,171.2" fill="#a6bb96"/><rect x="856" y="85.6" width="85.6" height="85.6" fill="#7DCFB6"/><rect x="856" y="85.6" width="42.8" height="42.8" fill="#8ec7a9"/><polygon points="856,85.6 898.8,85.6 898.8,128.39999999999998" fill="#f49458"/><rect x="898.8" y="85.6" width="42.8" height="42.8" fill="#90c6a7"/><polygon points="898.8,85.6 941.5999999999999,85.6 898.8,128.39999999999998" fill="#4d8e9f"/><rect x="856" y="128.4" width="42.8" height="42.8" fill="#8fc6a8"/><polygon points="898.8,128.4 898.8,171.2 856,171.2" fill="#6dbaaf"/><rect x="898.8" y="128.4" width="42.8" height="42.8" fill="#7bccb5"/><polygon points="898.8,128.4 941.5999999999999,128.4 941.5999999999999,171.2" fill="#5da4a7"/><rect x="941.5999999999999" y="85.6" width="85.6" height="85.6" fill="#7DCFB6"/><rect x="941.6" y="85.6" width="42.8" height="42.8" fill="#e89962"/><polygon points="941.6,85.6 984.4,128.39999999999998 941.6,128.39999999999998" fill="#e99961"/><rect x="984.4" y="85.6" width="42.8" height="42.8" fill="#3c7797"/><polygon points="984.4,85.6 1027.2,85.6 1027.2,128.39999999999998" fill="#22548b"/><rect x="941.6" y="128.4" width="42.8" height="42.8" fill="#4b8b9e"/><polygon points="984.4,128.4 984.4,171.2 941.6,171.2" fill="#f39459"/><rect x="984.4" y="128.4" width="42.8" height="42.8" fill="#579da4"/><polygon points="984.4,128.4 1027.2,128.4 1027.2,171.2" fill="#87caae"/><rect x="1027.1999999999998" y="85.6" width="85.6" height="85.6" fill="#7DCFB6"/><rect x="1027.2" y="85.6" width="42.8" height="42.8" fill="#9bc09f"/><polygon points="1070,85.6 1070,128.39999999999998 1027.2,128.39999999999998" fill="#b5b38a"/><rect x="1070" y="85.6" width="42.8" height="42.8" fill="#98c2a1"/><polygon points="1070,85.6 1112.8,85.6 1112.8,128.39999999999998" fill="#367095"/><rect x="1027.2" y="128.4" width="42.8" height="42.8" fill="#4f91a0"/><polygon points="1027.2,128.4 1070,128.4 1070,171.2" fill="#df9e69"/><rect x="1070" y="128.4" width="42.8" height="42.8" fill="#24578c"/><polygon points="1070,128.4 1112.8,171.2 1070,171.2" fill="#dba06c"/><rect x="1112.8" y="85.6" width="85.6" height="85.6" fill="#5397a2"/><polygon points="1198.3999999999999,85.6 1198.3999999999999,171.2 1112.8,171.2" fill="#62abaa"/><rect x="1198.4" y="85.6" width="85.6" height="85.6" fill="#295f8f"/><polygon points="1284,85.6 1284,171.2 1198.4,171.2" fill="#336c94"/><rect x="1284" y="85.6" width="85.6" height="85.6" fill="#7DCFB6"/><rect x="1284" y="85.6" width="42.8" height="42.8" fill="#66b0ab"/><polygon points="1284,85.6 1326.8,85.6 1326.8,128.39999999999998" fill="#f1955b"/><rect x="1326.8" y="85.6" width="42.8" height="42.8" fill="#599fa5"/><polygon points="1326.8,85.6 1369.6,128.39999999999998 1326.8,128.39999999999998" fill="#3b7797"/><rect x="1284" y="128.4" width="42.8" height="42.8" fill="#5092a1"/><polygon points="1284,128.4 1326.8,128.4 1326.8,171.2" fill="#a2bc99"/><rect x="1326.8" y="128.4" width="42.8" height="42.8" fill="#3b7697"/><polygon points="1369.6,128.4 1369.6,171.2 1326.8,171.2" fill="#c0ae82"/><rect x="0" y="171.2" width="85.6" height="85.6" fill="#4e90a0"/><polygon points="85.6,171.2 85.6,256.79999999999995 0,256.79999999999995" fill="#87caae"/><rect x="85.6" y="171.2" width="85.6" height="85.6" fill="#7DCFB6"/><rect x="85.6" y="171.2" width="42.8" height="42.8" fill="#285d8e"/><polygon points="85.6,171.2 128.39999999999998,171.2 85.6,214" fill="#3e7a98"/><rect x="128.4" y="171.2" width="42.8" height="42.8" fill="#86caaf"/><polygon points="128.4,171.2 171.2,171.2 171.2,214" fill="#a2bd99"/><rect x="85.6" y="214" width="42.8" height="42.8" fill="#6db9ae"/><polygon points="85.6,214 128.39999999999998,214 85.6,256.8" fill="#6cb8ae"/><rect x="128.4" y="214" width="42.8" height="42.8" fill="#98c1a1"/><polygon points="171.2,214 171.2,256.8 128.4,256.8" fill="#cda777"/><rect x="171.2" y="171.2" width="85.6" height="85.6" fill="#7DCFB6"/><rect x="171.2" y="171.2" width="42.8" height="42.8" fill="#66b0ab"/><polygon points="171.2,171.2 214,214 171.2,214" fill="#c8a97b"/><rect x="214" y="171.2" width="42.8" height="42.8" fill="#265b8d"/><polygon points="214,171.2 256.8,214 214,214" fill="#387295"/><rect x="171.2" y="214" width="42.8" height="42.8" fill="#a1bd9a"/><polygon points="214,214 214,256.8 171.2,256.8" fill="#75c4b2"/><rect x="214" y="214" width="42.8" height="42.8" fill="#82cdb2"/><polygon points="214,214 256.8,214 256.8,256.8" fill="#377195"/><rect x="256.8" y="171.2" width="85.6" height="85.6" fill="#b9b187"/><polygon points="342.4,171.2 342.4,256.79999999999995 256.8,256.79999999999995" fill="#3b7697"/><rect x="342.4" y="171.2" width="85.6" height="85.6" fill="#7DCFB6"/><rect x="342.4" y="171.2" width="42.8" height="42.8" fill="#3c7898"/><polygon points="342.4,171.2 385.2,171.2 385.2,214" fill="#3f7c99"/><rect x="385.2" y="171.2" width="42.8" height="42.8" fill="#83ccb2"/><polygon points="428,171.2 428,214 385.2,214" fill="#89c9ac"/><rect x="342.4" y="214" width="42.8" height="42.8" fill="#5396a2"/><polygon points="342.4,214 385.2,214 342.4,256.8" fill="#77c7b3"/><rect x="385.2" y="214" width="42.8" height="42.8" fill="#4c8e9f"/><polygon points="385.2,214 428,214 385.2,256.8" fill="#71beb0"/><rect x="428" y="171.2" width="85.6" height="85.6" fill="#97c2a2"/><polygon points="428,171.2 513.6,171.2 428,256.79999999999995" fill="#356e94"/><rect x="513.6" y="171.2" width="85.6" height="85.6" fill="#9dbf9d"/><polygon points="513.6,171.2 599.2,256.79999999999995 513.6,256.79999999999995" fill="#a7ba95"/><rect x="599.1999999999999" y="171.2" width="85.6" height="85.6" fill="#7DCFB6"/><rect x="599.2" y="171.2" width="42.8" height="42.8" fill="#d1a574"/><polygon points="642,171.2 642,214 599.2,214" fill="#43819b"/><rect x="642" y="171.2" width="42.8" height="42.8" fill="#e29c66"/><polygon points="684.8,171.2 684.8,214 642,214" fill="#5aa0a6"/><rect x="599.2" y="214" width="42.8" height="42.8" fill="#f79256"/><polygon points="599.2,214 642,214 599.2,256.8" fill="#427f9a"/><rect x="642" y="214" width="42.8" height="42.8" fill="#407c99"/><polygon points="642,214 684.8,214 642,256.8" fill="#48889d"/><rect x="684.8" y="171.2" width="85.6" height="85.6" fill="#407d99"/><polygon points="684.8,171.2 770.4,256.79999999999995 684.8,256.79999999999995" fill="#e99961"/><rect x="770.4" y="171.2" width="85.6" height="85.6" fill="#95c3a3"/><polygon points="856,171.2 856,256.79999999999995 770.4,256.79999999999995" fill="#9ebe9c"/><rect x="856" y="171.2" width="85.6" height="85.6" fill="#7DCFB6"/><rect x="856" y="171.2" width="42.8" height="42.8" fill="#aab993"/><polygon points="898.8,171.2 898.8,214 856,214" fill="#92c5a6"/><rect x="898.8" y="171.2" width="42.8" height="42.8" fill="#70beb0"/><polygon points="941.5999999999999,171.2 941.5999999999999,214 898.8,214" fill="#e89962"/><rect x="856" y="214" width="42.8" height="42.8" fill="#2e6591"/><polygon points="856,214 898.8,214 856,256.8" fill="#75c5b2"/><rect x="898.8" y="214" width="42.8" height="42.8" fill="#356f94"/><polygon points="941.5999999999999,214 941.5999999999999,256.8 898.8,256.8" fill="#4d8fa0"/><rect x="941.5999999999999" y="171.2" width="85.6" height="85.6" fill="#7DCFB6"/><rect x="941.6" y="171.2" width="42.8" height="42.8" fill="#316a93"/><polygon points="984.4,171.2 984.4,214 941.6,214" fill="#99c1a0"/><rect x="984.4" y="171.2" width="42.8" height="42.8" fill="#7acbb5"/><polygon points="984.4,171.2 1027.2,171.2 1027.2,214" fill="#e19d67"/><rect x="941.6" y="214" width="42.8" height="42.8" fill="#5ea6a8"/><polygon points="941.6,214 984.4,214 941.6,256.8" fill="#1e508a"/><rect x="984.4" y="214" width="42.8" height="42.8" fill="#7fceb5"/><polygon points="984.4,214 1027.2,214 1027.2,256.8" fill="#a7ba95"/><rect x="1027.2" y="171.2" width="85.6" height="85.6" fill="#98c2a1"/><polygon points="1027.2,171.2 1112.8,256.79999999999995 1027.2,256.79999999999995" fill="#a3bc98"/><rect x="1112.8" y="171.2" width="85.6" height="85.6" fill="#7DCFB6"/><rect x="1112.8" y="171.2" width="42.8" height="42.8" fill="#cba879"/><polygon points="1112.8,171.2 1155.6,171.2 1112.8,214" fill="#c3ac7f"/><rect x="1155.6" y="171.2" width="42.8" height="42.8" fill="#dba06c"/><polygon points="1155.6,171.2 1198.3999999999999,171.2 1198.3999999999999,214" fill="#377195"/><rect x="1112.8" y="214" width="42.8" height="42.8" fill="#73c2b1"/><polygon points="1112.8,214 1155.6,256.8 1112.8,256.8" fill="#377095"/><rect x="1155.6" y="214" width="42.8" height="42.8" fill="#d8a26e"/><polygon points="1155.6,214 1198.3999999999999,214 1198.3999999999999,256.8" fill="#90c5a7"/><rect x="1198.3999999999999" y="171.2" width="85.6" height="85.6" fill="#7DCFB6"/><rect x="1198.4" y="171.2" width="42.8" height="42.8" fill="#e19d67"/><polygon points="1241.2,171.2 1241.2,214 1198.4,214" fill="#22548b"/><rect x="1241.2" y="171.2" width="42.8" height="42.8" fill="#3a7697"/><polygon points="1241.2,171.2 1284,214 1241.2,214" fill="#265a8d"/><rect x="1198.4" y="214" width="42.8" height="42.8" fill="#599fa5"/><polygon points="1198.4,214 1241.2,214 1198.4,256.8" fill="#e69a63"/><rect x="1241.2" y="214" width="42.8" height="42.8" fill="#42809b"/><polygon points="1241.2,214 1284,256.8 1241.2,256.8" fill="#3a7597"/><rect x="1284" y="171.2" width="85.6" height="85.6" fill="#7DCFB6"/><rect x="1284" y="171.2" width="42.8" height="42.8" fill="#579ca4"/><polygon points="1284,171.2 1326.8,171.2 1284,214" fill="#4e8fa0"/><rect x="1326.8" y="171.2" width="42.8" height="42.8" fill="#a3bc98"/><polygon points="1326.8,171.2 1369.6,171.2 1369.6,214" fill="#4f91a0"/><rect x="1284" y="214" width="42.8" height="42.8" fill="#f39459"/><polygon points="1284,214 1326.8,256.8 1284,256.8" fill="#5498a3"/><rect x="1326.8" y="214" width="42.8" height="42.8" fill="#44839b"/><polygon points="1326.8,214 1369.6,214 1326.8,256.8" fill="#589da5"/><rect x="0" y="256.79999999999995" width="85.6" height="85.6" fill="#7DCFB6"/><rect x="0" y="256.8" width="42.8" height="42.8" fill="#6db9ae"/><polygon points="0,256.8 42.8,299.6 0,299.6" fill="#ec985f"/><rect x="42.8" y="256.8" width="42.8" height="42.8" fill="#2d6390"/><polygon points="42.8,256.8 85.6,299.6 42.8,299.6" fill="#e09d68"/><rect x="0" y="299.6" width="42.8" height="42.8" fill="#46859c"/><polygon points="0,299.6 42.8,342.40000000000003 0,342.40000000000003" fill="#e59b64"/><rect x="42.8" y="299.6" width="42.8" height="42.8" fill="#d3a472"/><polygon points="42.8,299.6 85.6,299.6 85.6,342.40000000000003" fill="#6ebbaf"/><rect x="85.6" y="256.8" width="85.6" height="85.6" fill="#63acaa"/><polygon points="85.6,256.8 171.2,256.8 85.6,342.4" fill="#75c5b2"/><rect x="171.2" y="256.79999999999995" width="85.6" height="85.6" fill="#7DCFB6"/><rect x="171.2" y="256.8" width="42.8" height="42.8" fill="#8bc8ab"/><polygon points="171.2,256.8 214,256.8 171.2,299.6" fill="#ea9860"/><rect x="214" y="256.8" width="42.8" height="42.8" fill="#46859c"/><polygon points="214,256.8 256.8,299.6 214,299.6" fill="#397496"/><rect x="171.2" y="299.6" width="42.8" height="42.8" fill="#589ea5"/><polygon points="171.2,299.6 214,299.6 171.2,342.40000000000003" fill="#9ac19f"/><rect x="214" y="299.6" width="42.8" height="42.8" fill="#21538b"/><polygon points="214,299.6 256.8,299.6 256.8,342.40000000000003" fill="#367095"/><rect x="256.8" y="256.8" width="85.6" height="85.6" fill="#2b6190"/><polygon points="342.4,256.8 342.4,342.4 256.8,342.4" fill="#d6a270"/><rect x="342.4" y="256.79999999999995" width="85.6" height="85.6" fill="#7DCFB6"/><rect x="342.4" y="256.8" width="42.8" height="42.8" fill="#8cc7aa"/><polygon points="385.2,256.8 385.2,299.6 342.4,299.6" fill="#5397a2"/><rect x="385.2" y="256.8" width="42.8" height="42.8" fill="#2a5f8f"/><polygon points="385.2,256.8 428,256.8 385.2,299.6" fill="#8cc7aa"/><rect x="342.4" y="299.6" width="42.8" height="42.8" fill="#85cbb0"/><polygon points="342.4,299.6 385.2,342.40000000000003 342.4,342.40000000000003" fill="#49899e"/><rect x="385.2" y="299.6" width="42.8" height="42.8" fill="#599ea5"/><polygon points="385.2,299.6 428,299.6 385.2,342.40000000000003" fill="#7fceb4"/><rect x="428" y="256.8" width="85.6" height="85.6" fill="#4e8fa0"/><polygon points="428,256.8 513.6,256.8 428,342.4" fill="#66b1ab"/><rect x="513.6" y="256.8" width="85.6" height="85.6" fill="#a3bc98"/><polygon points="599.2,256.8 599.2,342.4 513.6,342.4" fill="#3e7a98"/><rect x="599.1999999999999" y="256.79999999999995" width="85.6" height="85.6" fill="#7DCFB6"/><rect x="599.2" y="256.8" width="42.8" height="42.8" fill="#20538b"/><polygon points="642,256.8 642,299.6 599.2,299.6" fill="#8dc7aa"/><rect x="642" y="256.8" width="42.8" height="42.8" fill="#2e6591"/><polygon points="684.8,256.8 684.8,299.6 642,299.6" fill="#5fa6a8"/><rect x="599.2" y="299.6" width="42.8" height="42.8" fill="#8ac8ac"/><polygon points="599.2,299.6 642,342.40000000000003 599.2,342.40000000000003" fill="#b0b58e"/><rect x="642" y="299.6" width="42.8" height="42.8" fill="#407d99"/><polygon points="642,299.6 684.8,342.40000000000003 642,342.40000000000003" fill="#68b2ac"/><rect x="684.8" y="256.8" width="85.6" height="85.6" fill="#f2955a"/><polygon points="684.8,256.8 770.4,256.8 770.4,342.4" fill="#b6b389"/><rect x="770.4" y="256.8" width="85.6" height="85.6" fill="#a7ba95"/><polygon points="770.4,256.8 856,256.8 770.4,342.4" fill="#d9a16d"/><rect x="856" y="256.8" width="85.6" height="85.6" fill="#306792"/><polygon points="856,256.8 941.6,256.8 856,342.4" fill="#b8b187"/><rect x="941.6" y="256.8" width="85.6" height="85.6" fill="#1d4f89"/><polygon points="941.6,256.8 1027.2,256.8 1027.2,342.4" fill="#ee975d"/><rect x="1027.2" y="256.8" width="85.6" height="85.6" fill="#bfae82"/><polygon points="1027.2,256.8 1112.8,342.4 1027.2,342.4" fill="#417f9a"/><rect x="1112.8" y="256.79999999999995" width="85.6" height="85.6" fill="#7DCFB6"/><rect x="1112.8" y="256.8" width="42.8" height="42.8" fill="#a0bd9a"/><polygon points="1155.6,256.8 1155.6,299.6 1112.8,299.6" fill="#b4b38a"/><rect x="1155.6" y="256.8" width="42.8" height="42.8" fill="#c9a97a"/><polygon points="1155.6,256.8 1198.3999999999999,256.8 1198.3999999999999,299.6" fill="#9ac09f"/><rect x="1112.8" y="299.6" width="42.8" height="42.8" fill="#afb68f"/><polygon points="1112.8,299.6 1155.6,299.6 1112.8,342.40000000000003" fill="#4d8fa0"/><rect x="1155.6" y="299.6" width="42.8" height="42.8" fill="#397496"/><polygon points="1155.6,299.6 1198.3999999999999,342.40000000000003 1155.6,342.40000000000003" fill="#90c6a7"/><rect x="1198.3999999999999" y="256.79999999999995" width="85.6" height="85.6" fill="#7DCFB6"/><rect x="1198.4" y="256.8" width="42.8" height="42.8" fill="#46859c"/><polygon points="1241.2,256.8 1241.2,299.6 1198.4,299.6" fill="#498a9e"/><rect x="1241.2" y="256.8" width="42.8" height="42.8" fill="#c0ae81"/><polygon points="1241.2,256.8 1284,256.8 1284,299.6" fill="#bab186"/><rect x="1198.4" y="299.6" width="42.8" height="42.8" fill="#4f91a0"/><polygon points="1198.4,299.6 1241.2,299.6 1241.2,342.40000000000003" fill="#7fceb5"/><rect x="1241.2" y="299.6" width="42.8" height="42.8" fill="#44839b"/><polygon points="1241.2,299.6 1284,299.6 1284,342.40000000000003" fill="#5aa1a6"/><rect x="1284" y="256.79999999999995" width="85.6" height="85.6" fill="#7DCFB6"/><rect x="1284" y="256.8" width="42.8" height="42.8" fill="#24588c"/><polygon points="1284,256.8 1326.8,256.8 1326.8,299.6" fill="#ee975d"/><rect x="1326.8" y="256.8" width="42.8" height="42.8" fill="#8cc7aa"/><polygon points="1369.6,256.8 1369.6,299.6 1326.8,299.6" fill="#20528a"/><rect x="1284" y="299.6" width="42.8" height="42.8" fill="#85cbb0"/><polygon points="1284,299.6 1326.8,299.6 1326.8,342.40000000000003" fill="#68b3ac"/><rect x="1326.8" y="299.6" width="42.8" height="42.8" fill="#2a5f8f"/><polygon points="1326.8,299.6 1369.6,299.6 1369.6,342.40000000000003" fill="#d4a371"/><rect x="0" y="342.4" width="85.6" height="85.6" fill="#7DCFB6"/><rect x="0" y="342.4" width="42.8" height="42.8" fill="#9ac19f"/><polygon points="0,342.4 42.8,342.4 0,385.2" fill="#7ecfb5"/><rect x="42.8" y="342.4" width="42.8" height="42.8" fill="#c8a97b"/><polygon points="42.8,342.4 85.6,342.4 85.6,385.2" fill="#589da5"/><rect x="0" y="385.2" width="42.8" height="42.8" fill="#9cbf9e"/><polygon points="0,385.2 42.8,385.2 0,428" fill="#5193a1"/><rect x="42.8" y="385.2" width="42.8" height="42.8" fill="#c4ac7e"/><polygon points="42.8,385.2 85.6,385.2 42.8,428" fill="#eb985f"/><rect x="85.6" y="342.4" width="85.6" height="85.6" fill="#7DCFB6"/><rect x="85.6" y="342.4" width="42.8" height="42.8" fill="#7dcfb6"/><polygon points="128.39999999999998,342.4 128.39999999999998,385.2 85.6,385.2" fill="#99c1a0"/><rect x="128.4" y="342.4" width="42.8" height="42.8" fill="#c5ab7d"/><polygon points="128.4,342.4 171.2,342.4 128.4,385.2" fill="#6dbaaf"/><rect x="85.6" y="385.2" width="42.8" height="42.8" fill="#bcaf84"/><polygon points="85.6,385.2 128.39999999999998,385.2 85.6,428" fill="#91c5a6"/><rect x="128.4" y="385.2" width="42.8" height="42.8" fill="#5ca3a7"/><polygon points="128.4,385.2 171.2,385.2 171.2,428" fill="#1f508a"/><rect x="171.2" y="342.4" width="85.6" height="85.6" fill="#7DCFB6"/><rect x="171.2" y="342.4" width="42.8" height="42.8" fill="#f69256"/><polygon points="171.2,342.4 214,342.4 171.2,385.2" fill="#e79a62"/><rect x="214" y="342.4" width="42.8" height="42.8" fill="#3a7597"/><polygon points="214,342.4 256.8,342.4 256.8,385.2" fill="#94c3a4"/><rect x="171.2" y="385.2" width="42.8" height="42.8" fill="#1e4f89"/><polygon points="171.2,385.2 214,428 171.2,428" fill="#85cbaf"/><rect x="214" y="385.2" width="42.8" height="42.8" fill="#45849c"/><polygon points="214,385.2 256.8,428 214,428" fill="#dd9f6b"/><rect x="256.8" y="342.4" width="85.6" height="85.6" fill="#d0a675"/><polygon points="256.8,342.4 342.4,342.4 256.8,428" fill="#76c6b3"/><rect x="342.4" y="342.4" width="85.6" height="85.6" fill="#3c7898"/><polygon points="342.4,342.4 428,428 342.4,428" fill="#d9a16e"/><rect x="428" y="342.4" width="85.6" height="85.6" fill="#b2b58c"/><polygon points="428,342.4 513.6,342.4 428,428" fill="#8dc7a9"/><rect x="513.5999999999999" y="342.4" width="85.6" height="85.6" fill="#7DCFB6"/><rect x="513.6" y="342.4" width="42.8" height="42.8" fill="#60a8a8"/><polygon points="513.6,342.4 556.4,342.4 556.4,385.2" fill="#7fceb5"/><rect x="556.4" y="342.4" width="42.8" height="42.8" fill="#407e9a"/><polygon points="556.4,342.4 599.1999999999999,342.4 599.1999999999999,385.2" fill="#f59357"/><rect x="513.6" y="385.2" width="42.8" height="42.8" fill="#387295"/><polygon points="556.4,385.2 556.4,428 513.6,428" fill="#f2955a"/><rect x="556.4" y="385.2" width="42.8" height="42.8" fill="#a1bd9a"/><polygon points="556.4,385.2 599.1999999999999,428 556.4,428" fill="#acb791"/><rect x="599.1999999999999" y="342.4" width="85.6" height="85.6" fill="#7DCFB6"/><rect x="599.2" y="342.4" width="42.8" height="42.8" fill="#21548b"/><polygon points="599.2,342.4 642,385.2 599.2,385.2" fill="#dd9f6a"/><rect x="642" y="342.4" width="42.8" height="42.8" fill="#7cceb6"/><polygon points="684.8,342.4 684.8,385.2 642,385.2" fill="#f59358"/><rect x="599.2" y="385.2" width="42.8" height="42.8" fill="#366f95"/><polygon points="599.2,385.2 642,385.2 599.2,428" fill="#cfa675"/><rect x="642" y="385.2" width="42.8" height="42.8" fill="#9bc09e"/><polygon points="642,385.2 684.8,385.2 642,428" fill="#bab186"/><rect x="684.8" y="342.4" width="85.6" height="85.6" fill="#76c6b3"/><polygon points="684.8,342.4 770.4,428 684.8,428" fill="#b6b389"/><rect x="770.4" y="342.4" width="85.6" height="85.6" fill="#7DCFB6"/><rect x="770.4" y="342.4" width="42.8" height="42.8" fill="#47879d"/><polygon points="770.4,342.4 813.1999999999999,342.4 813.1999999999999,385.2" fill="#95c3a3"/><rect x="813.2" y="342.4" width="42.8" height="42.8" fill="#b5b38a"/><polygon points="813.2,342.4 856,385.2 813.2,385.2" fill="#84ccb1"/><rect x="770.4" y="385.2" width="42.8" height="42.8" fill="#4a8b9e"/><polygon points="813.1999999999999,385.2 813.1999999999999,428 770.4,428" fill="#c6aa7c"/><rect x="813.2" y="385.2" width="42.8" height="42.8" fill="#f39459"/><polygon points="813.2,385.2 856,428 813.2,428" fill="#8bc8ab"/><rect x="856" y="342.4" width="85.6" height="85.6" fill="#7DCFB6"/><rect x="856" y="342.4" width="42.8" height="42.8" fill="#cfa675"/><polygon points="856,342.4 898.8,385.2 856,385.2" fill="#4d8fa0"/><rect x="898.8" y="342.4" width="42.8" height="42.8" fill="#20538b"/><polygon points="941.5999999999999,342.4 941.5999999999999,385.2 898.8,385.2" fill="#3f7c99"/><rect x="856" y="385.2" width="42.8" height="42.8" fill="#dca06b"/><polygon points="856,385.2 898.8,385.2 898.8,428" fill="#5396a2"/><rect x="898.8" y="385.2" width="42.8" height="42.8" fill="#5194a1"/><polygon points="898.8,385.2 941.5999999999999,385.2 898.8,428" fill="#c0ae81"/><rect x="941.6" y="342.4" width="85.6" height="85.6" fill="#42809b"/><polygon points="1027.2,342.4 1027.2,428 941.6,428" fill="#b6b289"/><rect x="1027.2" y="342.4" width="85.6" height="85.6" fill="#20528a"/><polygon points="1027.2,342.4 1112.8,342.4 1027.2,428" fill="#b2b48c"/><rect x="1112.8" y="342.4" width="85.6" height="85.6" fill="#7DCFB6"/><rect x="1112.8" y="342.4" width="42.8" height="42.8" fill="#5aa0a6"/><polygon points="1112.8,342.4 1155.6,342.4 1155.6,385.2" fill="#2a5f8f"/><rect x="1155.6" y="342.4" width="42.8" height="42.8" fill="#2b618f"/><polygon points="1155.6,342.4 1198.3999999999999,385.2 1155.6,385.2" fill="#a2bc99"/><rect x="1112.8" y="385.2" width="42.8" height="42.8" fill="#a3bc98"/><polygon points="1112.8,385.2 1155.6,385.2 1112.8,428" fill="#2b6190"/><rect x="1155.6" y="385.2" width="42.8" height="42.8" fill="#79cab4"/><polygon points="1155.6,385.2 1198.3999999999999,428 1155.6,428" fill="#377195"/><rect x="1198.4" y="342.4" width="85.6" height="85.6" fill="#1e4f89"/><polygon points="1198.4,342.4 1284,342.4 1284,428" fill="#1e4f89"/><rect x="1284" y="342.4" width="85.6" height="85.6" fill="#7DCFB6"/><rect x="1284" y="342.4" width="42.8" height="42.8" fill="#c4ac7e"/><polygon points="1326.8,342.4 1326.8,385.2 1284,385.2" fill="#4f92a1"/><rect x="1326.8" y="342.4" width="42.8" height="42.8" fill="#d9a16e"/><polygon points="1326.8,342.4 1369.6,342.4 1326.8,385.2" fill="#aeb68f"/><rect x="1284" y="385.2" width="42.8" height="42.8" fill="#e19d67"/><polygon points="1284,385.2 1326.8,428 1284,428" fill="#68b2ac"/><rect x="1326.8" y="385.2" width="42.8" height="42.8" fill="#306892"/><polygon points="1326.8,385.2 1369.6,428 1326.8,428" fill="#47879d"/><rect x="0" y="428" width="85.6" height="85.6" fill="#7DCFB6"/><rect x="0" y="428" width="42.8" height="42.8" fill="#22558c"/><polygon points="0,428 42.8,428 0,470.8" fill="#20518a"/><rect x="42.8" y="428" width="42.8" height="42.8" fill="#65afab"/><polygon points="42.8,428 85.6,428 85.6,470.8" fill="#4f92a1"/><rect x="0" y="470.8" width="42.8" height="42.8" fill="#70beb0"/><polygon points="42.8,470.8 42.8,513.6 0,513.6" fill="#4b8c9f"/><rect x="42.8" y="470.8" width="42.8" height="42.8" fill="#92c4a5"/><polygon points="42.8,470.8 85.6,470.8 42.8,513.6" fill="#417e9a"/><rect x="85.6" y="428" width="85.6" height="85.6" fill="#7DCFB6"/><rect x="85.6" y="428" width="42.8" height="42.8" fill="#e39c66"/><polygon points="85.6,428 128.39999999999998,470.8 85.6,470.8" fill="#74c3b2"/><rect x="128.4" y="428" width="42.8" height="42.8" fill="#5295a2"/><polygon points="128.4,428 171.2,470.8 128.4,470.8" fill="#73c1b1"/><rect x="85.6" y="470.8" width="42.8" height="42.8" fill="#47869d"/><polygon points="85.6,470.8 128.39999999999998,470.8 128.39999999999998,513.6" fill="#579ba4"/><rect x="128.4" y="470.8" width="42.8" height="42.8" fill="#74c3b2"/><polygon points="128.4,470.8 171.2,470.8 171.2,513.6" fill="#77c8b3"/><rect x="171.2" y="428" width="85.6" height="85.6" fill="#7DCFB6"/><rect x="171.2" y="428" width="42.8" height="42.8" fill="#a2bc99"/><polygon points="171.2,428 214,428 171.2,470.8" fill="#5397a3"/><rect x="214" y="428" width="42.8" height="42.8" fill="#579ca4"/><polygon points="214,428 256.8,428 214,470.8" fill="#dba06c"/><rect x="171.2" y="470.8" width="42.8" height="42.8" fill="#92c5a6"/><polygon points="171.2,470.8 214,513.6 171.2,513.6" fill="#8cc8aa"/><rect x="214" y="470.8" width="42.8" height="42.8" fill="#5295a2"/><polygon points="214,470.8 256.8,470.8 214,513.6" fill="#8ac8ab"/><rect x="256.79999999999995" y="428" width="85.6" height="85.6" fill="#7DCFB6"/><rect x="256.8" y="428" width="42.8" height="42.8" fill="#7accb5"/><polygon points="256.8,428 299.6,470.8 256.8,470.8" fill="#275c8e"/><rect x="299.6" y="428" width="42.8" height="42.8" fill="#7accb5"/><polygon points="299.6,428 342.40000000000003,428 342.40000000000003,470.8" fill="#adb791"/><rect x="256.8" y="470.8" width="42.8" height="42.8" fill="#a9b994"/><polygon points="299.6,470.8 299.6,513.6 256.8,513.6" fill="#7dcfb6"/><rect x="299.6" y="470.8" width="42.8" height="42.8" fill="#5497a3"/><polygon points="299.6,470.8 342.40000000000003,470.8 342.40000000000003,513.6" fill="#f69357"/><rect x="342.4" y="428" width="85.6" height="85.6" fill="#7DCFB6"/><rect x="342.4" y="428" width="42.8" height="42.8" fill="#c0ae82"/><polygon points="342.4,428 385.2,428 342.4,470.8" fill="#64adaa"/><rect x="385.2" y="428" width="42.8" height="42.8" fill="#2b6190"/><polygon points="385.2,428 428,470.8 385.2,470.8" fill="#b3b48b"/><rect x="342.4" y="470.8" width="42.8" height="42.8" fill="#85cbb0"/><polygon points="342.4,470.8 385.2,470.8 385.2,513.6" fill="#bcaf84"/><rect x="385.2" y="470.8" width="42.8" height="42.8" fill="#e29c66"/><polygon points="385.2,470.8 428,470.8 428,513.6" fill="#a7ba95"/><rect x="428" y="428" width="85.6" height="85.6" fill="#bab186"/><polygon points="428,428 513.6,428 513.6,513.6" fill="#d5a371"/><rect x="513.6" y="428" width="85.6" height="85.6" fill="#69b4ad"/><polygon points="513.6,428 599.2,428 513.6,513.6" fill="#7ecfb6"/><rect x="599.2" y="428" width="85.6" height="85.6" fill="#c4ac7e"/><polygon points="599.2,428 684.8000000000001,513.6 599.2,513.6" fill="#68b3ac"/><rect x="684.8" y="428" width="85.6" height="85.6" fill="#265a8d"/><polygon points="684.8,428 770.4,428 684.8,513.6" fill="#83ccb1"/><rect x="770.4" y="428" width="85.6" height="85.6" fill="#6cb9ae"/><polygon points="770.4,428 856,428 770.4,513.6" fill="#88caad"/><rect x="856" y="428" width="85.6" height="85.6" fill="#7ecfb5"/><polygon points="856,428 941.6,428 856,513.6" fill="#c3ac7f"/><rect x="941.5999999999999" y="428" width="85.6" height="85.6" fill="#7DCFB6"/><rect x="941.6" y="428" width="42.8" height="42.8" fill="#de9f6a"/><polygon points="941.6,428 984.4,470.8 941.6,470.8" fill="#70beb0"/><rect x="984.4" y="428" width="42.8" height="42.8" fill="#25598d"/><polygon points="1027.2,428 1027.2,470.8 984.4,470.8" fill="#2e6591"/><rect x="941.6" y="470.8" width="42.8" height="42.8" fill="#67b1ac"/><polygon points="941.6,470.8 984.4,513.6 941.6,513.6" fill="#6cb9ae"/><rect x="984.4" y="470.8" width="42.8" height="42.8" fill="#65afab"/><polygon points="984.4,470.8 1027.2,470.8 1027.2,513.6" fill="#8ac9ac"/><rect x="1027.2" y="428" width="85.6" height="85.6" fill="#beae83"/><polygon points="1112.8,428 1112.8,513.6 1027.2,513.6" fill="#84ccb1"/><rect x="1112.8" y="428" width="85.6" height="85.6" fill="#5194a2"/><polygon points="1112.8,428 1198.3999999999999,428 1112.8,513.6" fill="#f1955b"/><rect x="1198.3999999999999" y="428" width="85.6" height="85.6" fill="#7DCFB6"/><rect x="1198.4" y="428" width="42.8" height="42.8" fill="#5397a2"/><polygon points="1241.2,428 1241.2,470.8 1198.4,470.8" fill="#a8ba94"/><rect x="1241.2" y="428" width="42.8" height="42.8" fill="#e69b64"/><polygon points="1284,428 1284,470.8 1241.2,470.8" fill="#e09e68"/><rect x="1198.4" y="470.8" width="42.8" height="42.8" fill="#a5bb97"/><polygon points="1198.4,470.8 1241.2,470.8 1198.4,513.6" fill="#cba879"/><rect x="1241.2" y="470.8" width="42.8" height="42.8" fill="#98c1a1"/><polygon points="1241.2,470.8 1284,513.6 1241.2,513.6" fill="#cfa675"/><rect x="1284" y="428" width="85.6" height="85.6" fill="#d5a371"/><polygon points="1369.6,428 1369.6,513.6 1284,513.6" fill="#89c9ad"/><rect x="0" y="513.6" width="85.6" height="85.6" fill="#22558b"/><polygon points="0,513.6 85.6,513.6 0,599.2" fill="#569ba4"/><rect x="85.6" y="513.6" width="85.6" height="85.6" fill="#63abaa"/><polygon points="171.2,513.6 171.2,599.2 85.6,599.2" fill="#4c8d9f"/><rect x="171.2" y="513.6" width="85.6" height="85.6" fill="#f69257"/><polygon points="171.2,513.6 256.79999999999995,599.2 171.2,599.2" fill="#4f91a0"/><rect x="256.79999999999995" y="513.5999999999999" width="85.6" height="85.6" fill="#7DCFB6"/><rect x="256.8" y="513.6" width="42.8" height="42.8" fill="#70beb0"/><polygon points="299.6,513.6 299.6,556.4 256.8,556.4" fill="#69b4ac"/><rect x="299.6" y="513.6" width="42.8" height="42.8" fill="#9fbe9c"/><polygon points="299.6,513.6 342.40000000000003,513.6 342.40000000000003,556.4" fill="#427f9a"/><rect x="256.8" y="556.4" width="42.8" height="42.8" fill="#96c3a3"/><polygon points="299.6,556.4 299.6,599.1999999999999 256.8,599.1999999999999" fill="#e49c65"/><rect x="299.6" y="556.4" width="42.8" height="42.8" fill="#d2a573"/><polygon points="299.6,556.4 342.40000000000003,556.4 299.6,599.1999999999999" fill="#6bb7ae"/><rect x="342.4" y="513.5999999999999" width="85.6" height="85.6" fill="#7DCFB6"/><rect x="342.4" y="513.6" width="42.8" height="42.8" fill="#7dceb6"/><polygon points="342.4,513.6 385.2,513.6 342.4,556.4" fill="#9ebf9c"/><rect x="385.2" y="513.6" width="42.8" height="42.8" fill="#c2ad80"/><polygon points="428,513.6 428,556.4 385.2,556.4" fill="#d9a16d"/><rect x="342.4" y="556.4" width="42.8" height="42.8" fill="#9cc09e"/><polygon points="342.4,556.4 385.2,599.1999999999999 342.4,599.1999999999999" fill="#a6ba95"/><rect x="385.2" y="556.4" width="42.8" height="42.8" fill="#5599a3"/><polygon points="385.2,556.4 428,599.1999999999999 385.2,599.1999999999999" fill="#62aaa9"/><rect x="428" y="513.6" width="85.6" height="85.6" fill="#5ba2a6"/><polygon points="428,513.6 513.6,513.6 428,599.2" fill="#c1ad80"/><rect x="513.5999999999999" y="513.5999999999999" width="85.6" height="85.6" fill="#7DCFB6"/><rect x="513.6" y="513.6" width="42.8" height="42.8" fill="#49899e"/><polygon points="513.6,513.6 556.4,513.6 556.4,556.4" fill="#73c1b1"/><rect x="556.4" y="513.6" width="42.8" height="42.8" fill="#cba878"/><polygon points="556.4,513.6 599.1999999999999,556.4 556.4,556.4" fill="#316892"/><rect x="513.6" y="556.4" width="42.8" height="42.8" fill="#9ac1a0"/><polygon points="556.4,556.4 556.4,599.1999999999999 513.6,599.1999999999999" fill="#e09e68"/><rect x="556.4" y="556.4" width="42.8" height="42.8" fill="#e39c66"/><polygon points="556.4,556.4 599.1999999999999,556.4 599.1999999999999,599.1999999999999" fill="#6ab6ad"/><rect x="599.1999999999999" y="513.5999999999999" width="85.6" height="85.6" fill="#7DCFB6"/><rect x="599.2" y="513.6" width="42.8" height="42.8" fill="#427f9a"/><polygon points="642,513.6 642,556.4 599.2,556.4" fill="#8ac8ac"/><rect x="642" y="513.6" width="42.8" height="42.8" fill="#93c4a4"/><polygon points="642,513.6 684.8,513.6 642,556.4" fill="#f1955b"/><rect x="599.2" y="556.4" width="42.8" height="42.8" fill="#8ac9ac"/><polygon points="599.2,556.4 642,556.4 642,599.1999999999999" fill="#83ccb1"/><rect x="642" y="556.4" width="42.8" height="42.8" fill="#326a93"/><polygon points="684.8,556.4 684.8,599.1999999999999 642,599.1999999999999" fill="#78c8b4"/><rect x="684.8" y="513.6" width="85.6" height="85.6" fill="#daa16d"/><polygon points="770.4,513.6 770.4,599.2 684.8,599.2" fill="#f2955a"/><rect x="770.4" y="513.5999999999999" width="85.6" height="85.6" fill="#7DCFB6"/><rect x="770.4" y="513.6" width="42.8" height="42.8" fill="#62aba9"/><polygon points="813.1999999999999,513.6 813.1999999999999,556.4 770.4,556.4" fill="#20528a"/><rect x="813.2" y="513.6" width="42.8" height="42.8" fill="#7cceb6"/><polygon points="856,513.6 856,556.4 813.2,556.4" fill="#c5ab7e"/><rect x="770.4" y="556.4" width="42.8" height="42.8" fill="#de9e69"/><polygon points="770.4,556.4 813.1999999999999,599.1999999999999 770.4,599.1999999999999" fill="#4c8d9f"/><rect x="813.2" y="556.4" width="42.8" height="42.8" fill="#b5b38a"/><polygon points="813.2,556.4 856,556.4 813.2,599.1999999999999" fill="#b8b288"/><rect x="856" y="513.6" width="85.6" height="85.6" fill="#346d94"/><polygon points="856,513.6 941.6,513.6 856,599.2" fill="#dba06c"/><rect x="941.6" y="513.6" width="85.6" height="85.6" fill="#2b6190"/><polygon points="1027.2,513.6 1027.2,599.2 941.6,599.2" fill="#bdaf84"/><rect x="1027.2" y="513.6" width="85.6" height="85.6" fill="#d3a472"/><polygon points="1027.2,513.6 1112.8,513.6 1027.2,599.2" fill="#d3a472"/><rect x="1112.8" y="513.6" width="85.6" height="85.6" fill="#e69b64"/><polygon points="1198.3999999999999,513.6 1198.3999999999999,599.2 1112.8,599.2" fill="#25598d"/><rect x="1198.4" y="513.6" width="85.6" height="85.6" fill="#4a8b9e"/><polygon points="1198.4,513.6 1284,513.6 1284,599.2" fill="#61aaa9"/><rect x="1284" y="513.6" width="85.6" height="85.6" fill="#2b618f"/><polygon points="1284,513.6 1369.6,513.6 1369.6,599.2" fill="#e59b64"/><rect x="0" y="599.1999999999999" width="85.6" height="85.6" fill="#7DCFB6"/><rect x="0" y="599.2" width="42.8" height="42.8" fill="#23568c"/><polygon points="0,599.2 42.8,642 0,642" fill="#e79a63"/><rect x="42.8" y="599.2" width="42.8" height="42.8" fill="#20528a"/><polygon points="42.8,599.2 85.6,599.2 42.8,642" fill="#7acbb4"/><rect x="0" y="642" width="42.8" height="42.8" fill="#c6ab7d"/><polygon points="0,642 42.8,642 42.8,684.8" fill="#df9e69"/><rect x="42.8" y="642" width="42.8" height="42.8" fill="#84ccb1"/><polygon points="42.8,642 85.6,642 85.6,684.8" fill="#80ceb4"/><rect x="85.6" y="599.1999999999999" width="85.6" height="85.6" fill="#7DCFB6"/><rect x="85.6" y="599.2" width="42.8" height="42.8" fill="#74c3b2"/><polygon points="85.6,599.2 128.39999999999998,599.2 85.6,642" fill="#2c6390"/><rect x="128.4" y="599.2" width="42.8" height="42.8" fill="#1f508a"/><polygon points="171.2,599.2 171.2,642 128.4,642" fill="#2a608f"/><rect x="85.6" y="642" width="42.8" height="42.8" fill="#45849c"/><polygon points="128.39999999999998,642 128.39999999999998,684.8 85.6,684.8" fill="#6fbcaf"/><rect x="128.4" y="642" width="42.8" height="42.8" fill="#8cc7aa"/><polygon points="171.2,642 171.2,684.8 128.4,684.8" fill="#97c2a2"/><rect x="171.2" y="599.1999999999999" width="85.6" height="85.6" fill="#7DCFB6"/><rect x="171.2" y="599.2" width="42.8" height="42.8" fill="#6cb8ae"/><polygon points="171.2,599.2 214,642 171.2,642" fill="#cba878"/><rect x="214" y="599.2" width="42.8" height="42.8" fill="#2b608f"/><polygon points="214,599.2 256.8,642 214,642" fill="#ea9961"/><rect x="171.2" y="642" width="42.8" height="42.8" fill="#5295a2"/><polygon points="214,642 214,684.8 171.2,684.8" fill="#265b8d"/><rect x="214" y="642" width="42.8" height="42.8" fill="#d0a574"/><polygon points="214,642 256.8,684.8 214,684.8" fill="#6db9ae"/><rect x="256.79999999999995" y="599.1999999999999" width="85.6" height="85.6" fill="#7DCFB6"/><rect x="256.8" y="599.2" width="42.8" height="42.8" fill="#cea676"/><polygon points="299.6,599.2 299.6,642 256.8,642" fill="#9cc09e"/><rect x="299.6" y="599.2" width="42.8" height="42.8" fill="#6ab5ad"/><polygon points="299.6,599.2 342.40000000000003,599.2 299.6,642" fill="#e69b63"/><rect x="256.8" y="642" width="42.8" height="42.8" fill="#7accb5"/><polygon points="256.8,642 299.6,642 299.6,684.8" fill="#76c5b3"/><rect x="299.6" y="642" width="42.8" height="42.8" fill="#8bc8ab"/><polygon points="299.6,642 342.40000000000003,642 299.6,684.8" fill="#83ccb2"/><rect x="342.4" y="599.1999999999999" width="85.6" height="85.6" fill="#7DCFB6"/><rect x="342.4" y="599.2" width="42.8" height="42.8" fill="#b0b68e"/><polygon points="385.2,599.2 385.2,642 342.4,642" fill="#5ea5a8"/><rect x="385.2" y="599.2" width="42.8" height="42.8" fill="#d8a26f"/><polygon points="385.2,599.2 428,599.2 428,642" fill="#a5bb97"/><rect x="342.4" y="642" width="42.8" height="42.8" fill="#6db9ae"/><polygon points="342.4,642 385.2,642 342.4,684.8" fill="#ec985f"/><rect x="385.2" y="642" width="42.8" height="42.8" fill="#aab892"/><polygon points="428,642 428,684.8 385.2,684.8" fill="#aab893"/><rect x="428" y="599.1999999999999" width="85.6" height="85.6" fill="#7DCFB6"/><rect x="428" y="599.2" width="42.8" height="42.8" fill="#69b5ad"/><polygon points="428,599.2 470.8,599.2 470.8,642" fill="#47879d"/><rect x="470.8" y="599.2" width="42.8" height="42.8" fill="#cfa676"/><polygon points="470.8,599.2 513.6,599.2 470.8,642" fill="#66b0ab"/><rect x="428" y="642" width="42.8" height="42.8" fill="#98c1a1"/><polygon points="428,642 470.8,642 470.8,684.8" fill="#e39c66"/><rect x="470.8" y="642" width="42.8" height="42.8" fill="#d3a473"/><polygon points="513.6,642 513.6,684.8 470.8,684.8" fill="#6bb7ae"/><rect x="513.5999999999999" y="599.1999999999999" width="85.6" height="85.6" fill="#7DCFB6"/><rect x="513.6" y="599.2" width="42.8" height="42.8" fill="#8ac9ac"/><polygon points="513.6,599.2 556.4,599.2 556.4,642" fill="#397396"/><rect x="556.4" y="599.2" width="42.8" height="42.8" fill="#87caae"/><polygon points="556.4,599.2 599.1999999999999,642 556.4,642" fill="#3a7596"/><rect x="513.6" y="642" width="42.8" height="42.8" fill="#7ecfb5"/><polygon points="513.6,642 556.4,684.8 513.6,684.8" fill="#5fa7a8"/><rect x="556.4" y="642" width="42.8" height="42.8" fill="#7bcdb5"/><polygon points="556.4,642 599.1999999999999,642 556.4,684.8" fill="#e39c66"/><rect x="599.2" y="599.2" width="85.6" height="85.6" fill="#f79256"/><polygon points="599.2,599.2 684.8000000000001,599.2 684.8000000000001,684.8000000000001" fill="#71bfb0"/><rect x="684.8" y="599.1999999999999" width="85.6" height="85.6" fill="#7DCFB6"/><rect x="684.8" y="599.2" width="42.8" height="42.8" fill="#46859c"/><polygon points="684.8,599.2 727.5999999999999,642 684.8,642" fill="#3f7b99"/><rect x="727.6" y="599.2" width="42.8" height="42.8" fill="#d9a16e"/><polygon points="727.6,599.2 770.4,599.2 770.4,642" fill="#a2bd99"/><rect x="684.8" y="642" width="42.8" height="42.8" fill="#e49b65"/><polygon points="684.8,642 727.5999999999999,684.8 684.8,684.8" fill="#7cceb5"/><rect x="727.6" y="642" width="42.8" height="42.8" fill="#ea9960"/><polygon points="727.6,642 770.4,684.8 727.6,684.8" fill="#a4bb97"/><rect x="770.4" y="599.1999999999999" width="85.6" height="85.6" fill="#7DCFB6"/><rect x="770.4" y="599.2" width="42.8" height="42.8" fill="#ea9960"/><polygon points="770.4,599.2 813.1999999999999,642 770.4,642" fill="#2c6290"/><rect x="813.2" y="599.2" width="42.8" height="42.8" fill="#b6b389"/><polygon points="813.2,599.2 856,599.2 813.2,642" fill="#92c5a6"/><rect x="770.4" y="642" width="42.8" height="42.8" fill="#73c2b1"/><polygon points="770.4,642 813.1999999999999,684.8 770.4,684.8" fill="#6cb9ae"/><rect x="813.2" y="642" width="42.8" height="42.8" fill="#9cc09e"/><polygon points="813.2,642 856,642 813.2,684.8" fill="#2f6691"/><rect x="856" y="599.2" width="85.6" height="85.6" fill="#95c3a3"/><polygon points="856,599.2 941.6,599.2 856,684.8000000000001" fill="#3b7697"/><rect x="941.6" y="599.2" width="85.6" height="85.6" fill="#417e9a"/><polygon points="1027.2,599.2 1027.2,684.8000000000001 941.6,684.8000000000001" fill="#cca878"/><rect x="1027.2" y="599.2" width="85.6" height="85.6" fill="#98c2a1"/><polygon points="1027.2,599.2 1112.8,684.8000000000001 1027.2,684.8000000000001" fill="#b7b288"/><rect x="1112.8" y="599.2" width="85.6" height="85.6" fill="#5a9fa5"/><polygon points="1198.3999999999999,599.2 1198.3999999999999,684.8000000000001 1112.8,684.8000000000001" fill="#85cbaf"/><rect x="1198.4" y="599.2" width="85.6" height="85.6" fill="#3e7b99"/><polygon points="1198.4,599.2 1284,684.8000000000001 1198.4,684.8000000000001" fill="#ed975e"/><rect x="1284" y="599.1999999999999" width="85.6" height="85.6" fill="#7DCFB6"/><rect x="1284" y="599.2" width="42.8" height="42.8" fill="#9ac19f"/><polygon points="1284,599.2 1326.8,599.2 1284,642" fill="#71bfb0"/><rect x="1326.8" y="599.2" width="42.8" height="42.8" fill="#4b8b9e"/><polygon points="1326.8,599.2 1369.6,599.2 1369.6,642" fill="#5093a1"/><rect x="1284" y="642" width="42.8" height="42.8" fill="#397496"/><polygon points="1326.8,642 1326.8,684.8 1284,684.8" fill="#45839c"/><rect x="1326.8" y="642" width="42.8" height="42.8" fill="#77c7b3"/><polygon points="1369.6,642 1369.6,684.8 1326.8,684.8" fill="#72c1b1"/><rect x="0" y="684.8" width="85.6" height="85.6" fill="#7DCFB6"/><rect x="0" y="684.8" width="42.8" height="42.8" fill="#316992"/><polygon points="42.8,684.8 42.8,727.5999999999999 0,727.5999999999999" fill="#a0be9b"/><rect x="42.8" y="684.8" width="42.8" height="42.8" fill="#b6b389"/><polygon points="42.8,684.8 85.6,727.5999999999999 42.8,727.5999999999999" fill="#569aa4"/><rect x="0" y="727.6" width="42.8" height="42.8" fill="#599ea5"/><polygon points="0,727.6 42.8,727.6 0,770.4" fill="#d9a16e"/><rect x="42.8" y="727.6" width="42.8" height="42.8" fill="#6cb8ae"/><polygon points="85.6,727.6 85.6,770.4 42.8,770.4" fill="#d2a473"/><rect x="85.6" y="684.8" width="85.6" height="85.6" fill="#7DCFB6"/><rect x="85.6" y="684.8" width="42.8" height="42.8" fill="#61aaa9"/><polygon points="85.6,684.8 128.39999999999998,684.8 85.6,727.5999999999999" fill="#86cbaf"/><rect x="128.4" y="684.8" width="42.8" height="42.8" fill="#bbb085"/><polygon points="171.2,684.8 171.2,727.5999999999999 128.4,727.5999999999999" fill="#42809b"/><rect x="85.6" y="727.6" width="42.8" height="42.8" fill="#265b8d"/><polygon points="85.6,727.6 128.39999999999998,727.6 85.6,770.4" fill="#75c5b2"/><rect x="128.4" y="727.6" width="42.8" height="42.8" fill="#44839b"/><polygon points="128.4,727.6 171.2,727.6 171.2,770.4" fill="#69b5ad"/><rect x="171.2" y="684.8" width="85.6" height="85.6" fill="#d2a573"/><polygon points="171.2,684.8 256.79999999999995,770.4 171.2,770.4" fill="#8ec7a9"/><rect x="256.8" y="684.8" width="85.6" height="85.6" fill="#25598d"/><polygon points="342.4,684.8 342.4,770.4 256.8,770.4" fill="#5599a3"/><rect x="342.4" y="684.8" width="85.6" height="85.6" fill="#68b3ac"/><polygon points="428,684.8 428,770.4 342.4,770.4" fill="#bcaf84"/><rect x="428" y="684.8" width="85.6" height="85.6" fill="#3b7697"/><polygon points="513.6,684.8 513.6,770.4 428,770.4" fill="#a3bc98"/><rect x="513.6" y="684.8" width="85.6" height="85.6" fill="#c8a97b"/><polygon points="599.2,684.8 599.2,770.4 513.6,770.4" fill="#d6a270"/><rect x="599.2" y="684.8" width="85.6" height="85.6" fill="#c7aa7c"/><polygon points="599.2,684.8 684.8000000000001,684.8 684.8000000000001,770.4" fill="#ed975e"/><rect x="684.8" y="684.8" width="85.6" height="85.6" fill="#7DCFB6"/><rect x="684.8" y="684.8" width="42.8" height="42.8" fill="#beae83"/><polygon points="684.8,684.8 727.5999999999999,684.8 684.8,727.5999999999999" fill="#5295a2"/><rect x="727.6" y="684.8" width="42.8" height="42.8" fill="#ea9961"/><polygon points="770.4,684.8 770.4,727.5999999999999 727.6,727.5999999999999" fill="#397496"/><rect x="684.8" y="727.6" width="42.8" height="42.8" fill="#7cceb6"/><polygon points="727.5999999999999,727.6 727.5999999999999,770.4 684.8,770.4" fill="#e09e68"/><rect x="727.6" y="727.6" width="42.8" height="42.8" fill="#47869d"/><polygon points="770.4,727.6 770.4,770.4 727.6,770.4" fill="#3b7797"/><rect x="770.4" y="684.8" width="85.6" height="85.6" fill="#7DCFB6"/><rect x="770.4" y="684.8" width="42.8" height="42.8" fill="#5498a3"/><polygon points="770.4,684.8 813.1999999999999,684.8 813.1999999999999,727.5999999999999" fill="#9fbe9b"/><rect x="813.2" y="684.8" width="42.8" height="42.8" fill="#1d4e89"/><polygon points="856,684.8 856,727.5999999999999 813.2,727.5999999999999" fill="#77c7b3"/><rect x="770.4" y="727.6" width="42.8" height="42.8" fill="#9bc09f"/><polygon points="813.1999999999999,727.6 813.1999999999999,770.4 770.4,770.4" fill="#8dc7aa"/><rect x="813.2" y="727.6" width="42.8" height="42.8" fill="#c0ae82"/><polygon points="813.2,727.6 856,727.6 856,770.4" fill="#77c7b3"/><rect x="856" y="684.8" width="85.6" height="85.6" fill="#5fa7a8"/><polygon points="941.6,684.8 941.6,770.4 856,770.4" fill="#f1955b"/><rect x="941.6" y="684.8" width="85.6" height="85.6" fill="#71bfb1"/><polygon points="941.6,684.8 1027.2,770.4 941.6,770.4" fill="#eb985f"/><rect x="1027.1999999999998" y="684.8" width="85.6" height="85.6" fill="#7DCFB6"/><rect x="1027.2" y="684.8" width="42.8" height="42.8" fill="#a1bd9a"/><polygon points="1027.2,684.8 1070,684.8 1070,727.5999999999999" fill="#24578c"/><rect x="1070" y="684.8" width="42.8" height="42.8" fill="#74c2b2"/><polygon points="1112.8,684.8 1112.8,727.5999999999999 1070,727.5999999999999" fill="#65afab"/><rect x="1027.2" y="727.6" width="42.8" height="42.8" fill="#83ccb1"/><polygon points="1027.2,727.6 1070,727.6 1070,770.4" fill="#f39459"/><rect x="1070" y="727.6" width="42.8" height="42.8" fill="#387296"/><polygon points="1070,727.6 1112.8,727.6 1112.8,770.4" fill="#23568c"/><rect x="1112.8" y="684.8" width="85.6" height="85.6" fill="#7DCFB6"/><rect x="1112.8" y="684.8" width="42.8" height="42.8" fill="#6fbdb0"/><polygon points="1155.6,684.8 1155.6,727.5999999999999 1112.8,727.5999999999999" fill="#d7a26f"/><rect x="1155.6" y="684.8" width="42.8" height="42.8" fill="#63acaa"/><polygon points="1155.6,684.8 1198.3999999999999,727.5999999999999 1155.6,727.5999999999999" fill="#afb68e"/><rect x="1112.8" y="727.6" width="42.8" height="42.8" fill="#a8b994"/><polygon points="1155.6,727.6 1155.6,770.4 1112.8,770.4" fill="#3a7496"/><rect x="1155.6" y="727.6" width="42.8" height="42.8" fill="#abb892"/><polygon points="1155.6,727.6 1198.3999999999999,727.6 1155.6,770.4" fill="#acb791"/><rect x="1198.3999999999999" y="684.8" width="85.6" height="85.6" fill="#7DCFB6"/><rect x="1198.4" y="684.8" width="42.8" height="42.8" fill="#3f7b99"/><polygon points="1198.4,684.8 1241.2,727.5999999999999 1198.4,727.5999999999999" fill="#b0b58d"/><rect x="1241.2" y="684.8" width="42.8" height="42.8" fill="#d6a270"/><polygon points="1241.2,684.8 1284,684.8 1241.2,727.5999999999999" fill="#86caaf"/><rect x="1198.4" y="727.6" width="42.8" height="42.8" fill="#86cbaf"/><polygon points="1198.4,727.6 1241.2,727.6 1241.2,770.4" fill="#65afab"/><rect x="1241.2" y="727.6" width="42.8" height="42.8" fill="#265a8d"/><polygon points="1241.2,727.6 1284,770.4 1241.2,770.4" fill="#3b7697"/><rect x="1284" y="684.8" width="85.6" height="85.6" fill="#ef965c"/><polygon points="1369.6,684.8 1369.6,770.4 1284,770.4" fill="#87caae"/><rect x="0" y="770.4" width="85.6" height="85.6" fill="#7DCFB6"/><rect x="0" y="770.4" width="42.8" height="42.8" fill="#b7b288"/><polygon points="0,770.4 42.8,813.1999999999999 0,813.1999999999999" fill="#64adaa"/><rect x="42.8" y="770.4" width="42.8" height="42.8" fill="#c0ad81"/><polygon points="85.6,770.4 85.6,813.1999999999999 42.8,813.1999999999999" fill="#e99961"/><rect x="0" y="813.2" width="42.8" height="42.8" fill="#4e90a0"/><polygon points="0,813.2 42.8,813.2 42.8,856" fill="#e39c65"/><rect x="42.8" y="813.2" width="42.8" height="42.8" fill="#f69357"/><polygon points="85.6,813.2 85.6,856 42.8,856" fill="#5ea5a7"/><rect x="85.6" y="770.4" width="85.6" height="85.6" fill="#275b8e"/><polygon points="85.6,770.4 171.2,856 85.6,856" fill="#98c1a1"/><rect x="171.2" y="770.4" width="85.6" height="85.6" fill="#7DCFB6"/><rect x="171.2" y="770.4" width="42.8" height="42.8" fill="#6fbdb0"/><polygon points="171.2,770.4 214,770.4 171.2,813.1999999999999" fill="#a3bc98"/><rect x="214" y="770.4" width="42.8" height="42.8" fill="#d2a573"/><polygon points="256.8,770.4 256.8,813.1999999999999 214,813.1999999999999" fill="#367095"/><rect x="171.2" y="813.2" width="42.8" height="42.8" fill="#8ac9ac"/><polygon points="214,813.2 214,856 171.2,856" fill="#48889d"/><rect x="214" y="813.2" width="42.8" height="42.8" fill="#265a8d"/><polygon points="214,813.2 256.8,813.2 256.8,856" fill="#bfae82"/><rect x="256.79999999999995" y="770.4" width="85.6" height="85.6" fill="#7DCFB6"/><rect x="256.8" y="770.4" width="42.8" height="42.8" fill="#3a7596"/><polygon points="256.8,770.4 299.6,770.4 299.6,813.1999999999999" fill="#3b7697"/><rect x="299.6" y="770.4" width="42.8" height="42.8" fill="#eb985f"/><polygon points="299.6,770.4 342.40000000000003,770.4 342.40000000000003,813.1999999999999" fill="#a4bc98"/><rect x="256.8" y="813.2" width="42.8" height="42.8" fill="#4e90a0"/><polygon points="299.6,813.2 299.6,856 256.8,856" fill="#367095"/><rect x="299.6" y="813.2" width="42.8" height="42.8" fill="#5da4a7"/><polygon points="299.6,813.2 342.40000000000003,856 299.6,856" fill="#8dc7a9"/><rect x="342.4" y="770.4" width="85.6" height="85.6" fill="#7DCFB6"/><rect x="342.4" y="770.4" width="42.8" height="42.8" fill="#23578c"/><polygon points="385.2,770.4 385.2,813.1999999999999 342.4,813.1999999999999" fill="#f39459"/><rect x="385.2" y="770.4" width="42.8" height="42.8" fill="#265b8d"/><polygon points="385.2,770.4 428,813.1999999999999 385.2,813.1999999999999" fill="#6ebbaf"/><rect x="342.4" y="813.2" width="42.8" height="42.8" fill="#3f7b99"/><polygon points="342.4,813.2 385.2,813.2 342.4,856" fill="#de9f6a"/><rect x="385.2" y="813.2" width="42.8" height="42.8" fill="#89c9ad"/><polygon points="385.2,813.2 428,813.2 385.2,856" fill="#e89962"/><rect x="428" y="770.4" width="85.6" height="85.6" fill="#42809a"/><polygon points="428,770.4 513.6,770.4 513.6,856" fill="#9fbe9b"/><rect x="513.5999999999999" y="770.4" width="85.6" height="85.6" fill="#7DCFB6"/><rect x="513.6" y="770.4" width="42.8" height="42.8" fill="#346d94"/><polygon points="556.4,770.4 556.4,813.1999999999999 513.6,813.1999999999999" fill="#bab186"/><rect x="556.4" y="770.4" width="42.8" height="42.8" fill="#75c5b2"/><polygon points="556.4,770.4 599.1999999999999,770.4 599.1999999999999,813.1999999999999" fill="#1f518a"/><rect x="513.6" y="813.2" width="42.8" height="42.8" fill="#62aba9"/><polygon points="513.6,813.2 556.4,856 513.6,856" fill="#85cbb0"/><rect x="556.4" y="813.2" width="42.8" height="42.8" fill="#95c3a3"/><polygon points="599.1999999999999,813.2 599.1999999999999,856 556.4,856" fill="#a0be9b"/><rect x="599.2" y="770.4" width="85.6" height="85.6" fill="#6fbcaf"/><polygon points="599.2,770.4 684.8000000000001,770.4 599.2,856" fill="#98c1a1"/><rect x="684.8" y="770.4" width="85.6" height="85.6" fill="#86caaf"/><polygon points="684.8,770.4 770.4,856 684.8,856" fill="#c5ab7d"/><rect x="770.4" y="770.4" width="85.6" height="85.6" fill="#7DCFB6"/><rect x="770.4" y="770.4" width="42.8" height="42.8" fill="#96c2a2"/><polygon points="770.4,770.4 813.1999999999999,813.1999999999999 770.4,813.1999999999999" fill="#afb68f"/><rect x="813.2" y="770.4" width="42.8" height="42.8" fill="#7ccdb5"/><polygon points="813.2,770.4 856,770.4 813.2,813.1999999999999" fill="#5396a2"/><rect x="770.4" y="813.2" width="42.8" height="42.8" fill="#6ebbaf"/><polygon points="770.4,813.2 813.1999999999999,813.2 813.1999999999999,856" fill="#326a93"/><rect x="813.2" y="813.2" width="42.8" height="42.8" fill="#397396"/><polygon points="813.2,813.2 856,813.2 856,856" fill="#afb68f"/><rect x="856" y="770.4" width="85.6" height="85.6" fill="#7DCFB6"/><rect x="856" y="770.4" width="42.8" height="42.8" fill="#2e6591"/><polygon points="898.8,770.4 898.8,813.1999999999999 856,813.1999999999999" fill="#caa979"/><rect x="898.8" y="770.4" width="42.8" height="42.8" fill="#7bccb5"/><polygon points="898.8,770.4 941.5999999999999,813.1999999999999 898.8,813.1999999999999" fill="#eb9860"/><rect x="856" y="813.2" width="42.8" height="42.8" fill="#275c8e"/><polygon points="856,813.2 898.8,856 856,856" fill="#b9b187"/><rect x="898.8" y="813.2" width="42.8" height="42.8" fill="#f59358"/><polygon points="898.8,813.2 941.5999999999999,856 898.8,856" fill="#2d6491"/><rect x="941.6" y="770.4" width="85.6" height="85.6" fill="#f79256"/><polygon points="1027.2,770.4 1027.2,856 941.6,856" fill="#cca778"/><rect x="1027.2" y="770.4" width="85.6" height="85.6" fill="#48889d"/><polygon points="1027.2,770.4 1112.8,770.4 1112.8,856" fill="#1e4f89"/><rect x="1112.8" y="770.4" width="85.6" height="85.6" fill="#7DCFB6"/><rect x="1112.8" y="770.4" width="42.8" height="42.8" fill="#6fbcaf"/><polygon points="1112.8,770.4 1155.6,770.4 1155.6,813.1999999999999" fill="#6ebbaf"/><rect x="1155.6" y="770.4" width="42.8" height="42.8" fill="#63acaa"/><polygon points="1155.6,770.4 1198.3999999999999,813.1999999999999 1155.6,813.1999999999999" fill="#64aeaa"/><rect x="1112.8" y="813.2" width="42.8" height="42.8" fill="#46849c"/><polygon points="1112.8,813.2 1155.6,813.2 1112.8,856" fill="#a0be9b"/><rect x="1155.6" y="813.2" width="42.8" height="42.8" fill="#5ba2a6"/><polygon points="1155.6,813.2 1198.3999999999999,813.2 1198.3999999999999,856" fill="#3f7c99"/><rect x="1198.4" y="770.4" width="85.6" height="85.6" fill="#8dc7a9"/><polygon points="1198.4,770.4 1284,856 1198.4,856" fill="#2f6792"/><rect x="1284" y="770.4" width="85.6" height="85.6" fill="#afb68f"/><polygon points="1369.6,770.4 1369.6,856 1284,856" fill="#6cb8ae"/></g></svg>